<svg id="Layer_1" data-name="Layer 1" xmlns="http://www.w3.org/2000/svg" viewBox="0 0 330.69 79.83"><defs><style>.cls-1,.cls-2{fill:red;}.cls-1{fill-rule:evenodd;}.cls-3{fill:#fff;}.cls-4{fill:#000;}.cls-5{fill:#eaab00;}</style></defs><title>DurhamFair-100th-hor-ko</title><path class="cls-1" d="M297.24,42.53c-.83-.28-1.93.08-2.57-.29l-.17-24.58c.64-.45,1.65,0,2.39-.35l0-15.32-.27-.37c-4.6,0-8.92,0-13.52.13-.21,5.41,0,10.09,0,15.5.83.37,2.12-.18,2.67.56l-.11,24.49c-.83.27-2-.29-2.39.44l.11,15.69,13.62.06.36-.18c-.06-5.23.14-10.64-.11-15.78"/><path class="cls-2" d="M230,58.2l.07-15.69c.65-.45,1.93-.08,2.85-.26l.1-22.84-.08-2.2-2.76-.29c-.25-5,0-10.36-.12-15.13l.37-.27c7.73-.06,15.73.07,23.46.1l.18.73.08,22.47-.27.19-7.45,0c-.45-2.38-.07-5.13-.25-7.61a16,16,0,0,0-4.69-.11l0,9.63c2.21.38,4.69.11,7,.21l.27.28,0,6.24-7.09.15-.18.46,0,7.88c1.11.38,2.3,0,3.41.29l-.07,15.87Z"/><path class="cls-2" d="M315.8,24.64c-.74,2-3.13,1.27-5,1.44l-.18-.09a66,66,0,0,1,0-8.44c1.57.19,4-.72,4.78,1.12s.44,4,.34,6M328.72,36.8a6.79,6.79,0,0,0-3,.08l-.39,4.76a1.06,1.06,0,0,1-.92.73c-.46,0-.64-.46-.73-.82-.91-3.4.12-7.62-1.52-10.74a4.22,4.22,0,0,0-2.93-1.94,10.1,10.1,0,0,0,4.52-4.66c1.13-4.49.23-9.44.43-14.21l-1-3.4a9.41,9.41,0,0,0-6.51-4.8c-5.61-.39-10.85-.05-16.46-.16l-.65.18c-.21,5.32-.13,10.27,0,15.5l2.57.19.09.19-.11,24.67c-.73.27-1.83-.28-2.2.45l0,15.59c4.5.2,9.29.22,13.79.06l.07-15.5-.09-.37-2.94-.19-.24-8.63.28-.27h3.49l.55.37c2.92,7.17-1.63,16.51,3,23a5.91,5.91,0,0,0,6.34,1.86,8,8,0,0,0,3.14-3.2c3.06-5.3,2.17-12.74,1.37-18.79"/><path class="cls-2" d="M281.05,42.73c-.46-.64-1.56-.09-2.2-.46l-3.57-24.69c.55-.55,1.65,0,2.39-.45-.07-5.13.14-10.45-.12-15.41-7.08-.12-13.79-.24-20.69-.09l-.16,15.13.27.37,2,.2-3.14,24.19c.08,1.56-1.84.45-2.58.91-.19,1.56-.28,14.32-.07,15.91H265.9L266,48c.18-.83.39-5.13-.25-5.68l-2.49-.1.76-5.13a50.06,50.06,0,0,1,5.34,0,31.2,31.2,0,0,1,.89,5.14l-3,.17c-.37.92-.25,15.13-.26,16,0,0,11.13.23,14-.13C281.28,53.1,281,48,281.05,42.73ZM265.2,28.82c.2-3.21.76-6.33,1.24-9.54l1.61,9.55Z"/><path class="cls-1" d="M116,42.15l.11-25c.74-.73,2.13,0,2.88-.63l0-15.46c-4.36-.11-8.82,0-13.28.12-.11,5.37-.23,10.09-.06,15.56.74.19,1.58-.09,2.22.28l0,8.52-.28.19c-1.86-.11-3.81.07-5.57-.21,0-2.87-.07-5.84.13-8.61.65-.19,1.39.19,2-.27,0-5.19.32-10.18,0-15.46a129.57,129.57,0,0,0-13.37,0l-.06,15,.18.46c.84.19,2-.08,2.79.29l0,25-.09.46c-1,.18-2-.1-2.88.27l-.07,15.55.18.18,13.28-.12c0-5.37.14-10.19-.12-15.74-.55-.28-1.2.18-1.76-.19a77.13,77.13,0,0,1,0-9.26,38.19,38.19,0,0,1,5.66,0c0,3,.07,6.3-.13,9.26l-2.14.27c.07,5.09-.32,10.64,0,15.74l13,0,.28-.18.16-15-.18-.74c-.93-.19-2.14.36-2.78-.29"/><path class="cls-1" d="M44.09,1.1l-.15,14.72c0,1.3,1.67.28,2.31.84l.09,23.8-.66,1a2.9,2.9,0,0,1-2.88.36,2.4,2.4,0,0,1-1.47-2.23l-.09-21.76.19-1.29c.46-.18,1,.1,1.48-.27,0-5,.23-10.37-.11-15.28L30,1c-.2,5-.13,9.62-.15,14.72.18,1.39,2,.37,3,.84L33,41.23l.24,9.63a9.65,9.65,0,0,0,5.45,7.06,11.62,11.62,0,0,0,10.49-.51,9.72,9.72,0,0,0,4.21-7.29l.13-29.63.2-3.89L56,16.43l.16-14.81L56,1c-3.9,0-8.08-.22-11.89.13"/><path class="cls-2" d="M133.28,28.52l1.25-9.71a83.45,83.45,0,0,1,1.63,9.82,7.49,7.49,0,0,1-2.88-.11M147.15,42,144,19.5l-.18-2.69,2.14-.17.25-15.19L146,1c-6.87,0-13.93-.06-20.89.09-.11,5.1-.14,10.37-.07,15.46.74.19,2.05-.36,2.23.57l-3.36,24.61-.28.65a5.12,5.12,0,0,0-2.41.26l-.16,15.09.18.65,12.72,0,.16-15.93-2.69-.29a33.59,33.59,0,0,1,.77-5.45l5,0,.46.28a34,34,0,0,1,.63,5.28c-1,.18-2.23-.2-3.16.26,0,5.18-.23,10.65,0,15.83,4.45,0,9.37.13,14,0,0-5.28.33-10.55.07-16-.74-.18-1.57.09-2.13-.28"/><path class="cls-2" d="M74.91,24.19a2.48,2.48,0,0,1-1.77,1.57l-3.34-.11c-.08-3.24,0-5.46,0-8.79,1.49-.09,3.35-.36,4.46.85,1.38,1.77.63,4.36.62,6.48M87.57,36.47l-3,.17-.3,4.82-.56.64c-.28.28-.74.09-1-.28-1.1-3.71.13-8.43-1.8-11.77a5.47,5.47,0,0,0-2.87-1.49l2.14-1.38c2.42-1.56,3-4.15,3.09-6.84-.16-4.9.79-9.9-1-14.35a9,9,0,0,0-6.66-4.84L60,.89c-.37.19-.93-.09-1.21.18,0,4.82-.41,10.55,0,15.56l2.41.19c.18.93,0,2.22.08,3.15l-.1,22.4c-.83.18-1.76-.1-2.51.27L58.61,58l.18.46c4.55-.07,9.19.13,13.74-.12l.07-15c.1-1.58-2-.47-2.88-1l0-9.17c1.3-.08,3-.36,4,.3,3,7.42-1.84,17.3,3.43,23.8A5.53,5.53,0,0,0,83,58.76c5-3.4,5.52-9.6,5.27-15.62-.18-2.22,0-4.63-.72-6.67"/><path class="cls-2" d="M16.53,42.27a9.9,9.9,0,0,1-3.72,0l-.08-22.49a5.14,5.14,0,0,1,.19-2.41c1.49.29,3.44-.54,4.46.76l.36.74.09,22a1.78,1.78,0,0,1-1.3,1.38M24.86,6.11C21.82.63,15.59.88,9.74,1,6.87,1.22,4,.83,1.2,1.28c-.11,5.37,0,10.46.12,15.84.83.28,2-.09,2.88.38,0,8.33.11,16.85,0,25.18-.93.27-2-.1-2.88.26,0,5.37-.23,10.56.12,15.74,6.4,0,13.45.8,19.13-1.21a12,12,0,0,0,6.54-9.32L27,12.69a14.51,14.51,0,0,0-2.1-6.58"/><path class="cls-2" d="M186,40.79c-.75,2.49,2.22.93,3.34,1.59,0,0,0,15.51,0,15.79a.46.46,0,0,1-.25.4l-14.7-.06-.18-.46.07-15.55a13.22,13.22,0,0,1,2.78-.18l.19-.46-.09-21.11-.38,1.94-5.45,35.44c-.1.74-1,.36-1.49.46l-2.69,0-.28-.46-3.77-27.7-1.54-9.82c-.22,6.76-.06,14.35-.19,21.48a7.2,7.2,0,0,0,2.79.2l.09.27-.16,15.83-.47.19-11.88-.05-.18-.65.16-15.37a15,15,0,0,1,2.88-.17l.2-25.37c-.74-.46-2-.1-3-.29-.26-5-.23-10.74,0-15.55C156.89.85,162.09.87,167.29,1l.27.56c1,6.67,1.71,13.34,2.89,19.91h.09L173.79.93c4.92-.17,10.3-.05,15.41.06.25,5,.05,10.28.12,15.56-.84.46-2.14.08-3.16.26C185.86,20.88,186,40.79,186,40.79Z"/><path class="cls-3" d="M261.06,45.23c-11-.11-16.1,4.59-23.59,6.76a23.3,23.3,0,0,1,1.27-4.39c.4-.93-1.41-1.57-2-1.14s-1.17.88-3.15.8c-1.8-.08-4.16-1.67-5.5-2.32-1.54-2.25-3-4.33-3.52-6.15a.43.43,0,0,0,0,.11,1.24,1.24,0,0,0,0,.27,11.36,11.36,0,0,1-.27-1.39c2-4.06,1.57-6.2,2.51-7.37a8.32,8.32,0,0,0,1.4-4.51c0-.14,0-.3,0-.48a3.12,3.12,0,0,0,.19-.93,6.5,6.5,0,0,0-.26-2.43c-.45-.75-.77-.86-1.93-1.09a6.85,6.85,0,0,0-3.9,1.43c-.13.15-3.25,1.16-4.11,1.53l-.37.13c.05-2.14-1.42-4.08-4-5.09a10,10,0,0,0-4.15-.72l.5-.07c-1.22-.09-2.83,0-2.48,1.09.15.49.72.83,1.75,1.33.74.28,3.4,1.95,3.18,3.55-4.42-.87-6.28-1.13-6.73-.83-2.34,1.59-2.67,1.91-6.28.7l.26.13c-2.77-1-4.81-2.15-4.82-3.88,0-.39-.56-.8-1-.95a1.91,1.91,0,0,1,.59.07c-.63-.5-1.83-.33-2.11,1.05a6.08,6.08,0,0,0,1.21,5.17c1.45,1.86,3.6,3.2,3.42,4.26a8.9,8.9,0,0,0-7.94-1.75,14.06,14.06,0,0,0-3.78,1.8c-2.08,1.46-2.07,1.43-2.06,1.79,0,0,.42.34.21.3l.62.13a58,58,0,0,0,7,7.3,10,10,0,0,1-.1,3c-4.23,8.3-13,7.7-13.42,14.33,0,.47,0,.87-.05,1.21a1.89,1.89,0,0,0,.14.58,9.94,9.94,0,0,0,.24,3.21c.16.73,2.77,2.15,2.59,4.48-.68-.58-1.16-.32-1.15,0,0,.75.56,1.51,2.16,2.66l.24.17a4.06,4.06,0,0,0,2.63.6c1.39,0,3.82.62,5.6.63a4.13,4.13,0,0,0,2.78-1.18,1.86,1.86,0,0,0,.53-.85,1.26,1.26,0,0,0,.24.32c6.06,3.16,11.91,5.08,15.08,6.56,2.19,1,1.62,2.14,2.27,2.16.49,0,1.47,0,2.59,0,1.51.25,3.64-1.14,5.73-1.58,1.23-.26,9.94-3.15,12.54-5.53,4.08-3.75,39.76-15.74,39.76-18C271.64,49.25,269.51,45.31,261.06,45.23Zm-24.6,7.05h0Z"/><path class="cls-4" d="M261.77,45.62A33.76,33.76,0,0,0,246,49.9a36.45,36.45,0,0,1-9.63,3.57,24.32,24.32,0,0,1-9.31.24c-3.47-.59-5.6-2.18-5.68-4.21a4.24,4.24,0,0,1,1.2-3.13s.14,0,.12.06a3.71,3.71,0,0,0-.44,3.26c.65,1.79,2.75,2.76,5.46,3.12a22.78,22.78,0,0,0,8.75-.53A26.26,26.26,0,0,1,238,47.62c.19-.46-.66-.93-.86-.6-.49.82-1.55,1.06-2.89,1.06a8,8,0,0,1-4.8-1.68,5.9,5.9,0,0,0-2.57-1.21,3.19,3.19,0,0,0-1.32,0s0-.11,0-.13a2.85,2.85,0,0,1,1.1-.24c-1.07-2-2.19-4.58-2.07-5.87.14-1.71,2.49-2.29,2.33-5.75,0-.8-.24-2,.31-2.8.82-1,1.42-4.47,1.25-5.44-.17-.77-.14-2.26-.63-2.79a3.66,3.66,0,0,0-1.7-.62,6.53,6.53,0,0,0-3.42,1.24,11,11,0,0,1-2,1.55,15.16,15.16,0,0,0-2.18,1.56c0-.06-.33-2.33-.62-3.27A6.64,6.64,0,0,0,215,19.17a7,7,0,0,0-3.57-1.09c-2.61.17-2.85.48-3.11.93-.24.3.69.75,1.4,1.09a10.86,10.86,0,0,1,3.57,2.48c.8,1.11.58,3,.16,3s-2.16-1.23-3.11-1.25c-1.76-.26-3.58-.79-4.2-.46-.43.15-1,1.19-2.17,2a3.5,3.5,0,0,0-1.24,3.26,10.24,10.24,0,0,0,1.7,3.73,5.76,5.76,0,0,0,1.4-1.56,9.05,9.05,0,0,1,2.64-2.48c.95-.74.38-2.45.78-2.95s1.94-.25,2.33.46c.74.9.4,3.06.16,3.58-.46,1.32-1.91.88-3.58,1.39-1.44.3-1.7,1.66-2.17,2.65a5.11,5.11,0,0,0-.31,2.17c-.08,0,.07.23.46-.62a4.63,4.63,0,0,1,5.29-2.18c1.48.35,3.36,2.52,3.72,4.35.16,1.42.41,3.36-1.39,4.51a3.62,3.62,0,0,1-4.35,0c-1.27-1-2-3.41-2.18-2.8-.58,1.34,1,4.86,1.55,5.6.36.44,1.19,3.72-2.17,3.57a3.15,3.15,0,0,1-3-3.42c.17-.74,1-1.15.46-1.4s-1.22.83-2.79,1.71-.26,2-.62,3.73c-.25.7-.92,1.53-3,2.8-1.94,1.12-6.24,1.14-6.68,0-.53-1.43,2.24-3.65,3-4a14.3,14.3,0,0,0,3.73-4.82c1.74-3.81,5.12-5.59,4.51-6.06,0-.06-2.11.85-3.42.31-.29-.12,1.09-1.4,1.4-1.71a12.32,12.32,0,0,0,2-2.79c-.18-.38-1.87.17-2.95-.16-.68-.27-.69-1.05-1.56-1.08s-2.13,1.84-2.79,2.33a9.24,9.24,0,0,0-1.87,3.26c-.28,1-.88,1-1.24.78s0-.15,0-1.87,1.5-2.71,2-3.11A16.84,16.84,0,0,0,196,31.44c.23-.18-.38-1.4-1.7-2.18s-4-.82-5-.62a12.75,12.75,0,0,0-3.57,1.71,11.47,11.47,0,0,0-2.17,1.71c-.09.18,1.06,1,1.7,1.87A6.87,6.87,0,0,0,187,36.41a23.27,23.27,0,0,0,2.33,1.87c.42.1.77.92.94.77s.06-1.75-.63-2a5.06,5.06,0,0,1-2-1.86,10.62,10.62,0,0,1-1.86-1.87c-.16-.31-1.11-.87-1.09-1.08s.66-.69,1.87-.78c1.36-.23,3.35-.66,3.57.31.19.72,0,2.83.31,3.88a3.58,3.58,0,0,1,.16,2.8,8.41,8.41,0,0,0-.16,2.18c.91,2.55,1.34,2.33.47,3.72-1.49,2.34-3.92,4-5.44,5.29a31.84,31.84,0,0,1-5.28,3.1c-.35.22-.44.89-1.4,2-.37.54-.49,2.36-1.24,3.42-.22.2.14,3.36.15,3.89s2.17,3,3.42,3.26,4.12,0,5.75.47c1.1.51,3.12,1.11,3.26,1.24s-.3.77-1.71.15a7.51,7.51,0,0,0-3.26-.62c-1.21-.19-3-.43-3.89-.62s-.75-.65-1.39-.62c-.31.06-.24,0-.47.47s2.15,2.32,2.8,2.79c1,.65,3.33.44,3.88.62a35.2,35.2,0,0,0,4,.78c1.93,0,3.6-1.52,3.73-1.55s4,1.6,5.13,2a11.2,11.2,0,0,0,5.28,0c7.68-2.36,9.55-4.58,11.19-5.91,3.83-3,4.7-6.14,5-5.44.09.24-1.79,3.11-3.89,5.29a16.75,16.75,0,0,1-3.1,2.48c-5,4.36-9.89,4.78-9.48,5.44a65.76,65.76,0,0,0,7,1.71c.51.13,6.26-5.66,5.9-5-.71,1.75-4.25,5.37-4.66,5.59a21.51,21.51,0,0,0,1.56,2.8,30.64,30.64,0,0,0,7-.31,29.72,29.72,0,0,0,10.25-4c.61-.44,2-1.61,3.21-2.73a38.06,38.06,0,0,0,13.13-4.47,46.49,46.49,0,0,1,8-3.4L257,62a10.25,10.25,0,0,0-.61,1.43,29.07,29.07,0,0,0-9.17,4.31.27.27,0,0,0,0,.45,4.42,4.42,0,0,1,2.13,2.23,23.14,23.14,0,0,0-3.11,6.85c-.05.17.56.62.77.52A32.12,32.12,0,0,1,258.71,74a7.07,7.07,0,0,0-1.41,3.12c0,.22.43.4.75.29,2.36-.76,4.34.88,6.63,1.13s4.18-.43,4.18-2.06V69.77c1.82-.29,2.88-1.32,2.88-2.88V51.54C271.74,47.94,267.83,45.62,261.77,45.62ZM191.2,59.25c-1,1.53-1.07,3.28-1.87,3.88s-6.86.49-7.92.16S179,62,179.24,61.74s.12-.78,2.95-.31a14.86,14.86,0,0,0,5.43-.32c.39-.17.61-1.17.78-1.39.94-.7,2.28-3.49,1.09-4-1.51-.67-1.61.72-2.33.93-.55.08-2.51.37-3.11,1.55s-1.46.6-2.48.16c-.74-.36-2.13.33-2.65,1.09s-.19,2-.62,1.7c-.22-.12-.06-2.17-.15-2.79-.09-.3.74-1.45,1.09-2.8s.34-1,.77-1.55c.66-1,.82-.76,1.09-1.09a16.52,16.52,0,0,1,2.49-.78c.19.18.35.87,2.17.78s4.65,0,5,.47a9.39,9.39,0,0,1,1.09,2.17A6.06,6.06,0,0,1,191.2,59.25ZM213.57,20.1c-.66-.29-3.5-.64-3.73-.78s-.64-.39-.15-.47,3.27-.16,4.19.47c1.28.74,2.54,1.55,3,3.11.17.44-.51.57-.77.46S215,20.88,213.57,20.1ZM219.47,36c-.18-1-.72-3.39-1.55-4.2-.33-.28-.78-.91-1.24-.47-.2.19.08.53.46,1.56s.57,2.8,0,2.95-1.07-1.82-2.33-2.33-1.38-1-1.39-1.55A2.17,2.17,0,0,1,214.81,30c.94-.24.72-.48.94-.62s.68-.66,1.08-.47.68-.24.62,1.25c0,.87,1.08.93,2,0a13.83,13.83,0,0,0,2.34-3.89c.13-.63,2-1.56,2.33-1.71.45-.31,1.73-2.32,2.33-2s1.53,1.08,1.55,3c.11,1.39-.52,1.68-.78,3.41s-1,1-1.4,2.18S225,35,224.45,36s-1.45,2.43-3,2.17A2.3,2.3,0,0,1,219.47,36Z"/><path class="cls-4" d="M195.86,21.65a2.78,2.78,0,0,1-.62-1.55c-.09-.74-.8-.82-1.4-.78-.41.41-.53.28-.78,1.24a4.65,4.65,0,0,0,1.09,4.35c2.2,2.84,3.78,3.3,4,3.89.07.37-.61,1.77-.31,1.71a13.4,13.4,0,0,1,3.26-.31,5.28,5.28,0,0,0,.78-1.71,12,12,0,0,1,.93-2.64c.22-.52-5.22-2.37-7-4.2m4.35,5.44c-1.57-.54-4.68-2.47-5.75-4.51a3.34,3.34,0,0,1-.31-2.79c.16-.17.84,0,.78.31s-.3,1.65,1.4,2.95c.83.67,5.07,2.92,5.12,2.95s-1.06,1.12-1.24,1.09"/><path class="cls-4" d="M210,36.41a2.36,2.36,0,0,1,2-.78,3.1,3.1,0,0,1,2.33,2.18c.43,1.21.33,3.55-1.87,4a3.38,3.38,0,0,1-4.19-2.33c-.21-1.34.23-1.41.15-1.4.35.05.73.82,1.87.31,1.55-.55-.37-2.07-.31-2"/><path class="cls-4" d="M224.91,25.69c.3.15,1.23,1.27-.46,5.75-1.56,4.1-2.27,3.67-2.33,3.73s-1-.67-.63-2c.2-1,1.13-1.28,1.56-1.87a7.51,7.51,0,0,0,.78-2.79c.1-.36.32-.36,0-.62s-.55-.41-.16-.78.72-1.09.93-1.24-.1-.27.31-.16"/><path class="cls-4" d="M243.09,69.77v.41h-.54v2h-.49v-2h-.54v-.41Z"/><path class="cls-4" d="M243.42,69.77h.74l.35,1.74h0l.35-1.74h.74v2.46h-.46v-2h0l-.44,2h-.39l-.44-2h0v2h-.46Z"/><path class="cls-5" d="M270.86,64.12c-1.36-2.05-4.27-3.68-8.57-3.68S252.76,62,246.9,65.11c-5.63,3-10.93,4.54-15.33,4.54-6.48,0-9.88-3.32-9.88-6.6v-11c1.52,1.77,4.91,2.89,9.24,2.89a33.71,33.71,0,0,0,15.56-4.2,33.18,33.18,0,0,1,15.28-4.24c5.44,0,9.09,2,9.09,5Z"/><path d="M227.58,56.68h0c-.12,0-.26.11-.52.49a8.77,8.77,0,0,1-2.66,2.54c-.09,0-.18.07-.18.19a.27.27,0,0,0,.09.23c.22.17,1.8-.93,2.64-2.22l-.18.38c-1.14,2.44-2.44,5.21-3.58,6.49l-.08.08.09.06.69.46.43.28.08,0,.05-.07A38.44,38.44,0,0,0,227.75,57C227.74,56.8,227.68,56.69,227.58,56.68Z"/><path d="M231,56.9h0A2.88,2.88,0,0,0,229.09,58a10.27,10.27,0,0,0-2.61,6.46c.05,1.78.6,2.89,1.52,3.14l.21,0a1.32,1.32,0,0,0,.83-.35c1.51-1.18,3.35-5.45,3.28-8.54C232.29,57.42,231.91,56.9,231,56.9Zm.85,1.48c.06,2.36-1.59,7.35-3.08,8.54a.82.82,0,0,1-.71.22c-.47-.12-.68-.49-.71-1.23-.07-2.39,1.39-6.63,2.8-8.1a1.3,1.3,0,0,1,.83-.49h0C231.58,57.32,231.83,57.64,231.85,58.38Z"/><path d="M237.64,56.36a1,1,0,0,0-.89-.11c-2,.41-4.81,5.77-4.73,9a3.38,3.38,0,0,0,.72,2.43,1.08,1.08,0,0,0,.73.27h.15c1.69-.18,4.41-6.44,4.4-10.15C238,57,237.9,56.58,237.64,56.36Zm-4,11.13a.55.55,0,0,1-.44-.1,1.2,1.2,0,0,1-.25-.87c-.07-3.11,2.46-9.56,3.87-9.86l.24,0a.45.45,0,0,1,.31.1,1,1,0,0,1,.23.79,20.68,20.68,0,0,1-1.37,6C235.29,65.92,234.33,67.42,233.61,67.49Z"/><path d="M245.18,57.53c-.52.23-1.43,1.83-2.89,4.69.15-.41.29-.84.45-1.28,1-3,2.23-6.46,2.71-7.65l.11-.27-.24.15-1,.6h0v0c-.21.51-.31.78-.52,1.35-.93,2.52-2.07,5-2.75,6.44-.31.66-.48,1-.56,1.22a.45.45,0,0,1,0,.1,15.05,15.05,0,0,1-.87,1.62c-.73,1.23-1.28,1.86-1.73,2-.1,0-.14,0-.15,0a.17.17,0,0,1,0-.12,52.5,52.5,0,0,1,2.24-6.5c.35-.92.66-1.72.81-2.14.79-.29,1.19-.45,2-.79a.26.26,0,0,0,.14-.26.2.2,0,0,0-.08-.18.17.17,0,0,0-.14,0c-.69.3-1.08.45-1.71.69.38-.95.59-1.45,1-2.28l.11-.24-.24.11c-.4.19-.6.29-1,.46l0,0v0c-.38.84-.57,1.33-.94,2.3-.24.08-.38.13-.64.2a.33.33,0,0,0-.13.25.26.26,0,0,0,.07.19.22.22,0,0,0,.14,0l.39-.13c-.71,1.72-2.62,6.48-2.61,7.94a1,1,0,0,0,.3.77.64.64,0,0,0,.36.11l.22,0c.39-.11,1-.47,2.09-2.36.22-.36.59-1.07.78-1.48a1.94,1.94,0,0,0,.16-.31c.1-.22.27-.57.55-1.13q.24-.48.42-.87c0,.12-.09.24-.13.36-.62,1.73-1.27,3.52-1.89,5l-.1.23.22-.1,1-.5,0,0,0,0c.49-1.29,3.43-7.33,4.24-7.7,0,0,0,0,0,.15,0,.94-1.52,4.94-2.4,6.74l-.14.27L243,65l1.1-.61h0v0c.46-.84,1.84-4.36,1.83-5.77,0-.32,0-.87-.35-1.06A.44.44,0,0,0,245.18,57.53Z"/><path d="M256.9,52.69s-.12-.08-.26.05a9.69,9.69,0,0,1-2.08,1.55,17.67,17.67,0,0,1,2.07-4.8l2-.25h.07c1.35-.15,2.37-1,2.37-1.31,0-.12-.05-.18-.16-.18h0a1,1,0,0,0-.26.06,19.78,19.78,0,0,1-3.37.6c-3.85.47-5.47,1.73-6.15,2.71a2.48,2.48,0,0,0-.47,1.89c.13.55.42.66.62.66h.07c.73-.09,1.74-1.56,1.73-2.89,0,0,0-.16-.13-.17a.11.11,0,0,0-.12.09c-.34,1.38-1.32,2.35-1.71,2.35,0,0-.14,0-.18-.2-.16-1,1.2-2.35,2.43-2.78a17.22,17.22,0,0,1,2.45-.46,15.79,15.79,0,0,0-2.63,5.46A7.23,7.23,0,0,0,251.39,57c-.15.21-.18.39-.08.46s.15.06.29-.14A7.61,7.61,0,0,1,253,55.78c-1.24,3.86-2.47,6.08-3.66,6.6-.51.22-.73.19-.83.13s-.12-.16-.12-.34a1.2,1.2,0,0,1,.07-.19,2.67,2.67,0,0,0,.2-.81.62.62,0,0,0-.26-.56.49.49,0,0,0-.5,0,1.45,1.45,0,0,0-.7,1.39,1.07,1.07,0,0,0,.42.92,1.18,1.18,0,0,0,.61.16,2.7,2.7,0,0,0,1.11-.28c2-.86,3.69-3.49,5.06-7.81a10.64,10.64,0,0,0,2.45-1.87C256.91,53,257,52.79,256.9,52.69Z"/><path d="M268,55.45a14.1,14.1,0,0,0-1.39,1.86c.12-.26,1.12-2.06,1.31-2.47l.23-.51-.08,0a5.36,5.36,0,0,0-.84-.38l-.07,0,0,.07c-.13.23-.44.63-.73,1l-.57.75-.26.38-.13.17-.22.29a10.77,10.77,0,0,1-.7.88c-.53.62-1.29,1.26-1.79,1.23-.12,0-.25,0-.25-.32a7.22,7.22,0,0,1,.79-2c.35-.77.84-1.81,1.52-3.32l.05-.12h-.12a9.07,9.07,0,0,0-1.07-.09h-.06l0,.06c-.15.27-.49.77-.83,1.26-.22.33-.45.66-.63.94l-.29.45c-.1.16-.16.25-.19.31a1,1,0,0,0-.07.09l-.13.2c-1,1.59-1.94,2.61-2.42,2.68a.27.27,0,0,1-.17,0,.16.16,0,0,1,0-.11,35.1,35.1,0,0,1,2.5-5.83l.09-.16-.18,0-.85.07c-.31,0-.39.24-.61.83l-.23.58V54a1.36,1.36,0,0,0-.35-1.06.64.64,0,0,0-.52-.15c-2.42.32-3.74,3.71-3.74,5.37,0,.84.13,1.32.43,1.55a.72.72,0,0,0,.44.14,1.13,1.13,0,0,0,.3,0c.46-.12,1.13-.78,2-2v.08c0,.66.1,1,.3,1.21a.71.71,0,0,0,.59.12c.49-.07,1.17-.67,2-1.78,0,0,.66-.93.89-1.32l.17-.25.91-1.35A8.2,8.2,0,0,0,261.74,58a1,1,0,0,0,.94,1.12h.06a3.11,3.11,0,0,0,2-1.3,10.62,10.62,0,0,0,.87-1.12.85.85,0,0,0,.16-.21c.34-.45.59-.79.79-1-.63,1.27-1.12,2.15-2,3.77l-.08.13h.15c.42,0,.63,0,1,.12h.06l0,0a18.76,18.76,0,0,1,2.46-3.67c.67-.66,1-.87.75.93,0,.16.73.11.74-.09C269.82,54.52,268.77,54.59,268,55.45Zm-12,4c-.11,0-.15,0-.16,0s-.11-.2-.11-.42c0-1.5,1.59-5.52,2.92-5.7h.05a.26.26,0,0,1,.19.07.88.88,0,0,1,.2.66C259.12,55.83,256.92,59.18,256,59.41Z"/><path d="M264.71,52.15h.11a.48.48,0,0,0,.28-.1,1,1,0,0,0,.29-.74.74.74,0,0,0-.45-.76.44.44,0,0,0-.4.08.91.91,0,0,0-.29.73A.75.75,0,0,0,264.71,52.15Z"/><path class="cls-3" d="M250.41,70.48a5.14,5.14,0,0,0-2-2.59,24.45,24.45,0,0,1,11.76-4.28c4.73-.28,7.8,1.31,7.8,3.93v7.11c-1.12-1.09-3.54-1.82-7.35-1.68s-7.39.73-13.24,3.58A23,23,0,0,1,250.41,70.48Z"/><path class="cls-4" d="M260,64.9a.94.94,0,0,0-.77-.16c-1.67.22-3.87,4-3.87,6.08a1.88,1.88,0,0,0,.47,1.5.74.74,0,0,0,.48.17,1,1,0,0,0,.24,0c1.35-.29,3.74-4.15,3.75-6.58A1.26,1.26,0,0,0,260,64.9Zm-3.47,7.25a.4.4,0,0,1-.35-.05c-.1-.08-.15-.25-.15-.54,0-2,2-6.34,3.21-6.51h.16a.52.52,0,0,1,.35.11.68.68,0,0,1,.17.55C259.88,67.88,257.6,71.91,256.49,72.15Z"/><path class="cls-4" d="M252.94,70.51c1.14-1,2.33-2,2.33-3.62a1.07,1.07,0,0,0-.37-.91,1.29,1.29,0,0,0-1.16,0,4.16,4.16,0,0,0-2.36,3.2.65.65,0,0,0,.23.57.71.71,0,0,0,.64,0A3.72,3.72,0,0,0,254,66.83a.15.15,0,0,0-.06-.13.14.14,0,0,0-.11,0c-.06,0-.1.08-.27.64s-.8,1.83-1.37,2.06a.31.31,0,0,1-.49-.32,3.74,3.74,0,0,1,2.07-2.77.74.74,0,0,1,.63,0c.11.07.16.23.16.47a5.5,5.5,0,0,1-1.34,2.86l-1,1.17a20,20,0,0,0-1.77,2.13,4.75,4.75,0,0,0-.71,1.6.14.14,0,0,0,.07.13l.05,0h.06s.08-.08.19-.28l.26-.47a3.68,3.68,0,0,1,1.1-1.26.19.19,0,0,1,.11,0s.06.18.08.36a.71.71,0,0,0,.27.53.74.74,0,0,0,.61,0,3.07,3.07,0,0,0,1.39-1.28,5.51,5.51,0,0,0,.66-1.15.15.15,0,0,0-.05-.12.14.14,0,0,0-.11,0s-.08,0-.34.49a4.24,4.24,0,0,1-1.26,1.52.2.2,0,0,1-.17,0,.45.45,0,0,1,0-.27.61.61,0,0,0-.9-.62,2.3,2.3,0,0,0-.75.57,11.17,11.17,0,0,1,1-1.17A14,14,0,0,1,252.94,70.51Z"/><path class="cls-4" d="M266.18,65.66a.87.87,0,0,0-1-.14,2.61,2.61,0,0,0-1.2,2.26,1.85,1.85,0,0,0,1,1.89c.56.18.95-.17,1.23-.6-.29,1.22-1.41,3-2.77,2.88-.44,0-.69-.21-.68-.45,0-.07,0-.12.11-.2a.7.7,0,0,0,.22-.52c0-.22-.13-.57-.43-.58a.39.39,0,0,0-.34.12.7.7,0,0,0-.19.52,1.33,1.33,0,0,0,1.34,1.45h.22a2.91,2.91,0,0,0,1.92-.82,4.78,4.78,0,0,0,1.47-3.67A2.63,2.63,0,0,0,266.18,65.66Zm-.5,3.59a.65.65,0,0,1-.57.12.81.81,0,0,1-.44-.83c0-.5.48-2.32,1.1-2.6a.35.35,0,0,1,.14,0,.38.38,0,0,1,.27.13,1.44,1.44,0,0,1,.36,1.13A2.69,2.69,0,0,1,265.68,69.25Z"/><path class="cls-4" d="M263.44,64.7c-.11,0-.23.1-.66.57s-.77.84-1.46,1.54a.2.2,0,0,0,0,.26.18.18,0,0,0,.1,0,.12.12,0,0,0,.1,0c.36-.37.68-.72,1-1,.12-.14.24-.28.36-.4L262,67.22c-.84,1.5-1.79,3.19-2.67,4.67l-.09.13.16,0a7.31,7.31,0,0,1,1.06-.13h0l0,0a48.54,48.54,0,0,0,3.08-6.9C263.57,64.79,263.52,64.71,263.44,64.7Z"/></svg>