<svg id="Layer_1" data-name="Layer 1" xmlns="http://www.w3.org/2000/svg" viewBox="0 0 144 144" x="0px" y="0px" xml:space="preserve" preserveAspectRatio="xMidYMid meet" width="144" height="144" ><defs><style>.cls-1{fill:#fff;}.cls-2{fill:red;}.cls-3{fill:#eaab00;}</style></defs><title>Artboard 1</title><ellipse class="cls-1" cx="72" cy="72" rx="62.64" ry="61.15"/><path class="cls-1" d="M126.72,70c-12.85-.12-18.84,5.37-27.59,7.91a26.2,26.2,0,0,1,1.49-5.13c.46-1.1-1.66-1.85-2.28-1.35s-1.38,1-3.69.94c-2.11-.08-4.87-2-6.44-2.7-1.8-2.65-3.5-5.07-4.12-7.2v.44a13,13,0,0,1-.31-1.63c2.39-4.75,1.84-7.25,2.94-8.61a9.88,9.88,0,0,0,1.64-5.29v-.55a3.71,3.71,0,0,0,.22-1.09,7.58,7.58,0,0,0-.31-2.84c-.52-.88-.9-1-2.25-1.28s-4,1.14-4.57,1.67c-.14.17-3.79,1.36-4.8,1.79l-.43.15c0-2.5-1.67-4.77-4.67-6a11.5,11.5,0,0,0-4.85-.84l.59-.08c-1.42-.11-3.31,0-2.91,1.27.18.57.85,1,2.06,1.55.87.33,4,2.29,3.72,4.16-5.18-1-7.35-1.33-7.88-1-2.74,1.86-3.12,2.23-7.35.82l.31.15c-3.24-1.2-5.62-2.52-5.64-4.54,0-.45-.66-.94-1.22-1.11a2.71,2.71,0,0,1,.69.08c-.73-.59-2.14-.39-2.46,1.23A7.08,7.08,0,0,0,48,47c1.68,2.17,4.21,3.74,4,5a10.4,10.4,0,0,0-9.28-2,16.49,16.49,0,0,0-4.42,2.11c-2.44,1.71-2.43,1.68-2.42,2.09,0,0,.5.41.25.36l.73.15a67.54,67.54,0,0,0,8.21,8.53A11.22,11.22,0,0,1,45,66.71c-5,9.71-15.22,9-15.7,16.76,0,.55-.05,1-.06,1.42a2,2,0,0,0,.17.67,11.33,11.33,0,0,0,.27,3.76c.19.85,3.24,2.51,3,5.25-.79-.68-1.35-.39-1.34,0,0,.87.66,1.76,2.53,3.11l.28.2a4.71,4.71,0,0,0,3.08.7c1.62,0,4.47.72,6.55.74A4.81,4.81,0,0,0,47,97.86a2.14,2.14,0,0,0,.62-1,1.93,1.93,0,0,0,.28.36c7.08,3.71,13.94,6,17.64,7.69,2.56,1.2,1.9,2.5,2.66,2.52h3c1.77.3,4.27-1.33,6.7-1.85,1.45-.31,11.64-3.68,14.68-6.47C97.36,94.72,139.1,80.7,139.1,78,139.1,74.67,136.61,70.07,126.72,70ZM98,78.21Z"/><path class="cls-2" d="M112.61,106.91c-.76-2.31-3.76-3.28-3.82-3.27l-1.63,1.63s1,1.52.36,2c-.84.78-2.07-1.19-2.91-1.45-1-.2-2.46.8-2.54.72.08.08,1.74-2,1.27-2.9-.11-.48-1.73-3.18-3.82-3.27s-6.08,3.07-7.27,3.63-6.06,3.11-6,3.09l1.64,4.18,1.64-.73,3.09,6.55-2,.72,2.18,4.55c-.07,0,4.39-2,5.27-2.37a65,65,0,0,0,5.81-3.27l-2.9-4L98.61,114l-1.27-2.18a12,12,0,0,1,2.36-1.64,1.93,1.93,0,0,1,2,.91c1.47,2,1.56,2.61,3.09,3.27s4.19-1.15,5.09-2,3.44-3.1,2.73-5.45M99,107.64c-.28,1.06-3,2.36-2.91,2.36l-1.45-2.18a13.83,13.83,0,0,1,2.9-1.46c.73-.15,1.75.29,1.46,1.28"/><path class="cls-2" d="M33.73,111.09,37,107.82l1.64,1.45,4.9-5.45-1.45-1.46,2.73-2.9c.08,0,4.67,3.5,6.18,4.36a58.77,58.77,0,0,0,6.9,3.27l-2.54,6.18-5.09-2.36.91-1.82-3.09-1.82-1.64,2.18s1.8,1.12,2.18,1.28c.58.33,2.75,1.51,2.73,1.45l-.73,1.63c-.08,0-2.2-1-2.72-1.27s-2.34-1.32-2.37-1.27l-1.27,1.82,2.18,1.63-2.36,3.82c.08.07-4.26-2.57-5.27-3.27s-5.12-4.27-5.09-4.18"/><path class="cls-2" d="M75.53,121.09H73.71L71,114h1.45l.18-4.18c0-.06-5-.38-6.9-.73s-6.2-1.32-6.18-1.27l-1.46,4,1.64.54-4.91,6-2-.55L51,122c.06,0,4.53,1.45,5.27,1.82s5.77,1.24,5.81,1.27l.91-4.72L60.63,120l.91-1.45a19,19,0,0,0,2.36.36,11.05,11.05,0,0,0,2.36.37l.37,1.63-2.73-.18-.73,4.55c.08,0,5.38.63,6.55.72.9,0,6.07-.14,6-.18Zm-11.27-4.37a11.72,11.72,0,0,1-1.45-.18l1.82-2.91.91,3.27a4,4,0,0,1-1.28-.18"/><path class="cls-2" d="M76.08,109.45s3.19-.44,4.18-.72,4.27-1.12,4.36-1.09l1.45,4.18-1.63.54,2.18,6.73,2-.37,1.63,4.18a48.59,48.59,0,0,1-5.63,1.82c-1.82.27-6.37.86-6.36.91l-.73-4.73,2.18-.18-1.27-7.09-1.64.18Z"/><path d="M127.55,70.42a39.59,39.59,0,0,0-18.47,5A42.79,42.79,0,0,1,97.82,79.6a28.71,28.71,0,0,1-10.89.28c-4.07-.69-6.55-2.55-6.65-4.92a5,5,0,0,1,1.41-3.67s.16,0,.14.08a4.33,4.33,0,0,0-.52,3.81c.76,2.09,3.22,3.23,6.38,3.64a26.84,26.84,0,0,0,10.25-.61,30.2,30.2,0,0,1,1.83-5.46c.23-.53-.77-1.09-1-.7-.58,1-1.82,1.25-3.39,1.25a9.45,9.45,0,0,1-5.61-2,6.76,6.76,0,0,0-3-1.41,4,4,0,0,0-1.54-.07v-.14a3.24,3.24,0,0,1,1.3-.29C85.28,67,84,64,84.1,62.52c.17-2,2.91-2.67,2.73-6.72,0-.94-.29-2.34.36-3.27,1-1.23,1.66-5.23,1.46-6.37-.19-.9-.16-2.64-.73-3.27a4.36,4.36,0,0,0-2-.72c-1.17-.17-3.62,1.07-4,1.45a12.28,12.28,0,0,1-2.36,1.82A17.91,17.91,0,0,0,77,47.29a34.29,34.29,0,0,0-.73-3.81c-.31-1.51-2.45-3.56-3.45-4a8.26,8.26,0,0,0-4.18-1.27c-3.06.19-3.34.56-3.64,1.09-.27.34.81.87,1.64,1.27a12.9,12.9,0,0,1,4.18,2.91c.93,1.29.67,3.5.18,3.45s-2.52-1.43-3.64-1.45c-2.06-.31-4.18-.93-4.9-.55-.51.18-1.18,1.39-2.55,2.36a4.15,4.15,0,0,0-1.45,3.82,11.78,11.78,0,0,0,2,4.36,6.71,6.71,0,0,0,1.63-1.81c.62-1.18,1.84-1.93,3.09-2.91s.44-2.87.91-3.46,2.27-.28,2.73.55c.86,1,.46,3.58.18,4.18-.54,1.55-2.24,1-4.18,1.64-1.69.34-2,1.93-2.55,3.09a6.1,6.1,0,0,0-.36,2.54c-.09,0,.08.26.55-.73A5.41,5.41,0,0,1,68.63,56c1.73.4,3.93,2.94,4.36,5.09.18,1.65.47,3.92-1.64,5.27a4.25,4.25,0,0,1-5.09,0c-1.47-1.14-2.34-4-2.54-3.27-.68,1.56,1.16,5.68,1.82,6.54.46.54,1.38,4.37-2.54,4.2a3.7,3.7,0,0,1-3.46-3.91.28.28,0,0,0,0-.09c.2-.86,1.12-1.35.54-1.63s-1.43,1-3.27,2c-1.67.9-.29,2.4-.73,4.37-.28.82-1.06,1.79-3.45,3.27-2.27,1.31-7.31,1.33-7.81,0-.62-1.67,2.61-4.27,3.45-4.73a16.86,16.86,0,0,0,4.36-5.63c2-4.46,6-6.54,5.27-7.09,0-.07-2.47,1-4,.36-.34-.14,1.28-1.64,1.64-2a14.87,14.87,0,0,0,2.36-3.27c-.2-.44-2.18.21-3.45-.18-.79-.32-.81-1.23-1.82-1.27s-2.5,2.16-3.27,2.73c-1,.73-1.81,2.88-2.18,3.81-.33,1.12-1,1.12-1.46.91-.34,0,0-.17,0-2.18s1.76-3.18,2.37-3.64a21.65,21.65,0,0,0,2.54-1.81c.27-.21-.45-1.64-2-2.55-1.37-1-4.69-1-5.81-.72a14.25,14.25,0,0,0-4.18,2,13,13,0,0,0-2.55,2c-.09.22,1.25,1.18,2,2.19a7.79,7.79,0,0,0,2,2.9,24.84,24.84,0,0,0,2.73,2.18c.48.13.89,1.08,1.09.91.19-.35.07-2-.73-2.36a5.9,5.9,0,0,1-2.36-2.18A12.11,12.11,0,0,1,38.64,56c-.19-.37-1.3-1-1.28-1.27s.77-.81,2.19-.91c1.58-.27,3.91-.77,4.18.36.21.84,0,3.31.36,4.54A4.2,4.2,0,0,1,44.27,62a9.86,9.86,0,0,0-.18,2.54c1.07,3,1.56,2.73.54,4.36-1.74,2.73-4.58,4.66-6.36,6.18a37.25,37.25,0,0,1-6.18,3.64c-.4.25-.5,1-1.63,2.36-.43.62-.57,2.75-1.46,4-.25.23.17,3.93.19,4.54s2.53,3.55,4,3.82,4.83,0,6.73.54c1.29.61,3.65,1.3,3.82,1.46s-.36.9-2,.18a8.65,8.65,0,0,0-3.82-.73c-1.42-.22-3.57-.51-4.54-.72-1.14-.35-.89-.77-1.64-.73-.36.07-.28,0-.55.54s2.52,2.72,3.28,3.28c1.15.76,3.9.51,4.54.72a42.43,42.43,0,0,0,4.73.91c2.26.06,4.2-1.77,4.36-1.82s4.69,1.88,6,2.37a13.17,13.17,0,0,0,6.18,0c9-2.76,11.17-5.36,13.08-6.91,4.48-3.55,5.5-7.19,5.82-6.36.1.27-2.09,3.63-4.55,6.18A19.67,19.67,0,0,1,71,95.28c-5.86,5.09-11.57,5.59-11.09,6.36.11.26,7.5,1.9,8.18,2S75.41,97,75,97.82c-.84,2.05-5,6.28-5.46,6.54a25.58,25.58,0,0,0,1.82,3.28,36.12,36.12,0,0,0,8.18-.37,34.69,34.69,0,0,0,12-4.72,47.33,47.33,0,0,0,3.74-3.19,44.61,44.61,0,0,0,15.37-5.23,55.1,55.1,0,0,1,9.39-4l2-.58a12.93,12.93,0,0,0-.72,1.67,34,34,0,0,0-10.71,5,.32.32,0,0,0-.1.44.47.47,0,0,0,.1.1,5.17,5.17,0,0,1,2.49,2.6,27.35,27.35,0,0,0-3.65,8c0,.21.66.74.91.62a37.55,37.55,0,0,1,13.64-4.4,8.25,8.25,0,0,0-1.65,3.65c0,.26.5.46.88.34,2.77-.89,5.08,1,7.76,1.32s4.89-.51,4.89-2.41v-7.8c2.13-.34,3.37-1.54,3.37-3.38v-18C139.22,73.14,134.64,70.42,127.55,70.42ZM45,86.37c-1.12,1.79-1.25,3.84-2.18,4.54s-8,.57-9.27.19S30.67,89.59,31,89.28s.15-.91,3.46-.36a17.25,17.25,0,0,0,6.36-.37c.44-.21.7-1.37.91-1.63,1.1-.82,2.66-4.08,1.27-4.73-1.77-.78-1.88.85-2.73,1.09-.63.09-2.93.43-3.63,1.82s-1.71.69-2.91.18c-.86-.42-2.49.39-3.09,1.27s-.23,2.38-.73,2c-.26-.15-.07-2.54-.18-3.27-.1-.35.87-1.69,1.27-3.27s.4-1.16.91-1.82c.77-1.17,1-.89,1.27-1.27.71-.15,2.69-1.08,2.91-.91s.42,1,2.55.91,5.43,0,5.81.54A11.39,11.39,0,0,1,45.72,82,7,7,0,0,1,45,86.37Zm26.17-45.8c-.77-.34-4.09-.74-4.36-.91s-.75-.45-.18-.54,3.83-.19,4.9.54c1.5.87,3,1.81,3.46,3.64.19.51-.6.66-.91.54S72.87,41.49,71.17,40.57Zm6.91,18.54c-.22-1.16-.85-4-1.82-4.91-.39-.32-.92-1.07-1.46-.54-.22.22.1.61.55,1.81s.66,3.29,0,3.46S74.1,56.8,72.62,56.2,71,55,71,54.38a2.56,2.56,0,0,1,1.63-2.18c1.1-.28.84-.56,1.09-.73s.8-.76,1.28-.54.79-.29.72,1.45c0,1,1.26,1.09,2.37,0a16.12,16.12,0,0,0,2.72-4.54c.16-.74,2.39-1.83,2.73-2,.53-.36,2-2.72,2.72-2.36a3.54,3.54,0,0,1,1.82,3.45c.13,1.63-.6,2-.91,4S86,52.07,85.53,53.47s-1,4.54-1.64,5.64S82.2,62,80.44,61.65A2.66,2.66,0,0,1,78.08,59.11Z"/><path d="M50.45,42.39a3.36,3.36,0,0,1-.73-1.82c-.1-.87-.93-1-1.63-.91-.48.48-.62.32-.91,1.45a5.42,5.42,0,0,0,1.27,5.09c2.58,3.33,4.43,3.85,4.73,4.55.08.43-.72,2.07-.37,2a15.82,15.82,0,0,1,3.82-.37,6.15,6.15,0,0,0,.91-2,13.52,13.52,0,0,1,1.09-3.09c.26-.59-6.1-2.77-8.18-4.9m5.09,6.36c-1.84-.64-5.47-2.89-6.73-5.27-.75-1.64-.62-3-.36-3.27s1,0,.91.36S49,42.5,51,44c1,.79,5.93,3.42,6,3.46a5.25,5.25,0,0,1-1.45,1.27"/><path d="M67,59.65a2.8,2.8,0,0,1,2.36-.91,3.58,3.58,0,0,1,2.73,2.55c.5,1.41.39,4.15-2.18,4.72A4,4,0,0,1,65,63.29c-.24-1.57.27-1.64.18-1.64.41.06.86,1,2.18.37,1.82-.65-.43-2.42-.36-2.37"/><path d="M84.44,47.11c.35.18,1.43,1.49-.55,6.73-1.81,4.79-2.64,4.29-2.72,4.36a1.9,1.9,0,0,1-.73-2.36c.23-1.15,1.32-1.5,1.82-2.18a8.92,8.92,0,0,0,.91-3.28c.12-.42.37-.42,0-.72s-.65-.48-.19-.91.85-1.28,1.09-1.46-.11-.31.37-.18"/><path d="M105.7,98.68v.47h-.63v2.41h-.58V99.15h-.63v-.47Z"/><path d="M106.09,98.68H107l.41,2h0l.42-2h.86v2.88h-.53v-2.3h0l-.52,2.3h-.45l-.51-2.3h0v2.3h-.53Z"/><path class="cls-2" d="M31,35.84c-.38-.08-6.59,7.81-6.54,8.73l3.64,1.82c0,.06,1.07-1.65,1.27-1.64-.07,0,7.11,4.28,8.36,4.36s3.45-1.3,5.45-3.45c.44-.55,3.61-3.84,3.09-5.45s-5.74-7.34-5.82-7.27l1.64-1.28-2.73-3.45-4,3.09-3.64,3.64L35,37.66l1.09-1.09s4.74,4.15,4.91,4.54-1.62,2.32-2.36,2.19-5.23-3.69-5.27-3.64l.9-1.09A28.5,28.5,0,0,0,31,35.84"/><path class="cls-2" d="M66.44,27.85l-2,.18c-.08.42-.14.84-.18,1.27a.78.78,0,0,1-1.05.38l0,0c-.72-.29-.53-2.08-1.63-2.54a3.27,3.27,0,0,0-2-.18c-.09,0,2.62-1.57,2.91-2.18A4.77,4.77,0,0,0,61,20.58c-1-.77-3.6-.57-6,0-5.65,1.25-13.44,6.26-13.45,6.18l2.55,3.63,1.63-.91,3.82,5.64L48.09,36l2.36,3.63s3.19-1.82,3.64-2.18l4-1.64-1.63-4-1.82.72-1.09-2.18c.07,0,2.72-1.1,3.45-.91.61.37,1.09,2.18,1.28,3.09s.8,1.82,2.72,2.18a6.23,6.23,0,0,0,5.27-1.81c2-1.84.24-5.11.18-5.09m-13.81.72-1.09-2.18s4-2.35,4.73-.72-3.58,2.94-3.64,2.9"/><path class="cls-2" d="M67.9,18.21A47,47,0,0,1,73.71,18c1.31-.05,5.56.32,5.64.37l-.55,4.18H77.17L77,24.76s1.89.21,2.18.18a15.84,15.84,0,0,0,2.36.36l.36-2.18-1.63-.36.54-4c-.06-.06,5,.81,5.64.91s5.56,1.92,5.63,2l-1.63,3.81-2-.72L86.07,31.3l1.82.73-1.45,4c0-.05-3.28-1.11-3.64-1.28s-4.17-.86-4.18-.9l.55-4.19,1.45.19.55-2.37c0-.08-1.74-.46-2-.54a18.9,18.9,0,0,1-2.37-.18l-.18,2.36,1.27.36-.36,4.18c-.08,0-3.24-.26-4-.36a29.45,29.45,0,0,0-4.36.18L69,29.12h2l-.55-6.91-2.18.18Z"/><path class="cls-2" d="M104.79,28a71.88,71.88,0,0,0-7.63-4.36l-1.82,3.81,1.27.91L91.16,33.3l-1.45-.55-1.64,3.82s2.62,1.36,3.27,1.64c.5.16,3.63,2,3.64,2l2.54-3.46-1.63-1.09L97,34.75s1.66,1.07,1.82,1.09a9.33,9.33,0,0,1,1.63,1.46l-.54,1.27L98.25,37.3l-2.54,3.45s3.12,2.5,3.27,2.73,3,2.91,3.09,2.91l3.27-2.73-.91-1.27,3.09-6.18L109,37.3l3.09-3.09a75.75,75.75,0,0,0-7.3-6.21M101,34.75,99,33.3l2.72-1.64Z"/><path class="cls-2" d="M33.91,52h0m0,0s-6.5-4.08-8.72-4c-2.35.25-5.12,3.9-6.36,8.54a89.81,89.81,0,0,0-2,10.91l4.54.18V65.47l7.09.73-.36,2,4.18.18s2.36-9.51,3.09-13.82C35.61,53,33.92,52.2,33.91,52m-4.54,8.36c-.07.16-6.83-1.63-6.91-1.64.08,0,.89-3.58,1.82-3.81.5-.18,5.77,1,6.18,2a10.53,10.53,0,0,1-1.09,3.45"/><path class="cls-2" d="M115.33,37.84l-3.27,2.91,1.28,1.82-5.46,4-1.45-1.64-3.27,2.73s1.83,2.52,2,2.91a39.21,39.21,0,0,0,2.18,3.27L111.15,52l-.72-1.82,5.63-3.09-7.81,8.54L109.34,58l11.63.72-6.18,1.64-.73-1.82-4,1.09c-.06,0,.77,3.46.91,4.18a38.76,38.76,0,0,1,.73,4.91l4.54-.36-.36-2.18,7.09-.73.18,2.54h4.54c.08-.09-.75-6-1.09-7.27-.08-.82-1.51-6.09-1.45-6.18L118.06,54,123,49.48s-2.43-4.3-3.27-5.82c-.77-1.35-4.28-5.76-4.37-5.82"/><path class="cls-3" d="M138.19,92.07c-1.59-2.4-5-4.3-10-4.3s-11.15,1.83-18,5.45c-6.59,3.48-12.79,5.32-17.94,5.32-7.58,0-11.55-3.89-11.55-7.72V78c1.78,2.07,5.74,3.38,10.8,3.38a39.34,39.34,0,0,0,18.2-4.92,39,39,0,0,1,17.88-5c6.37,0,10.64,2.37,10.64,5.9Z"/><path d="M87.56,83.36h0c-.13,0-.29.13-.6.58a10.23,10.23,0,0,1-3.11,3,.21.21,0,0,0-.22.23.36.36,0,0,0,.11.26c.26.2,2.1-1.09,3.08-2.6l-.21.45c-1.33,2.85-2.84,6.09-4.19,7.59l-.08.09.1.07c.26.19.53.36.81.54l.5.33.09.06.06-.09c1.71-2.58,3.9-9.66,3.88-10.13C87.75,83.51,87.67,83.38,87.56,83.36Z"/><path d="M91.56,83.62h0a3.38,3.38,0,0,0-2.21,1.23,12,12,0,0,0-3,7.56c.06,2.08.7,3.38,1.78,3.67a1,1,0,0,0,.25,0,1.62,1.62,0,0,0,1-.41c1.76-1.39,3.92-6.38,3.84-10C93.07,84.23,92.62,83.62,91.56,83.62Zm1,1.74c.07,2.76-1.85,8.59-3.6,10a1,1,0,0,1-.83.26c-.55-.14-.8-.57-.83-1.44-.09-2.8,1.62-7.75,3.27-9.47a1.47,1.47,0,0,1,1-.57h0c.66,0,1,.35,1,1.22Z"/><path d="M99.32,83a1.18,1.18,0,0,0-1-.13c-2.31.48-5.62,6.76-5.53,10.49a3.89,3.89,0,0,0,.85,2.84,1.27,1.27,0,0,0,.85.32h.17c2-.2,5.16-7.53,5.15-11.87C99.77,83.75,99.63,83.24,99.32,83ZM94.61,96a.59.59,0,0,1-.51-.12,1.38,1.38,0,0,1-.29-1c-.09-3.64,2.87-11.18,4.52-11.53h.28a.52.52,0,0,1,.36.11q.27.21.27.93a24.07,24.07,0,0,1-1.6,7C96.58,94.17,95.45,95.93,94.61,96Z"/><path d="M108.14,84.35c-.6.28-1.67,2.15-3.37,5.5.17-.48.34-1,.52-1.5,1.22-3.54,2.61-7.56,3.18-9l.12-.3-.28.17-1.17.7h0c-.24.59-.36.91-.61,1.58-1.09,3-2.42,5.81-3.22,7.52-.36.78-.55,1.2-.64,1.44l-.06.11a20.26,20.26,0,0,1-1,1.9c-.86,1.44-1.5,2.18-2,2.33h-.18s0-.07,0-.14c0-.74,1.58-4.88,2.63-7.61.41-1.07.76-2,.94-2.5.92-.34,1.4-.53,2.33-.93.06,0,.16-.09.16-.3a.22.22,0,0,0-.09-.2.15.15,0,0,0-.16,0c-.82.35-1.26.53-2,.8.43-1.1.68-1.69,1.13-2.66l.13-.28-.28.13-1.18.54h0c-.44,1-.67,1.56-1.1,2.7l-.75.23c-.08,0-.15.2-.15.29a.27.27,0,0,0,.08.22.15.15,0,0,0,.16,0l.46-.14c-.83,2-3.06,7.58-3,9.29a1.08,1.08,0,0,0,.35.89.61.61,0,0,0,.41.13h.27c.45-.12,1.13-.54,2.44-2.76.26-.41.7-1.25.92-1.72l.18-.36c.12-.26.32-.67.65-1.33l.48-1-.15.42c-.73,2-1.48,4.11-2.21,5.8l-.12.27.27-.13c.48-.22.72-.34,1.2-.58h0c.58-1.51,4-8.57,5-9,0,0,.07,0,.07.17,0,1.1-1.78,5.79-2.82,7.89l-.15.31.3-.17c.52-.28.78-.42,1.29-.72h0c.53-1,2.14-5.1,2.13-6.75,0-.37-.06-1-.41-1.24A.53.53,0,0,0,108.14,84.35Z"/><path d="M121.86,78.7a.24.24,0,0,0-.31.06,11.06,11.06,0,0,1-2.43,1.81A21.06,21.06,0,0,1,121.54,75l2.38-.29H124c1.58-.18,2.77-1.18,2.77-1.54,0-.14-.06-.2-.19-.2h0a1.08,1.08,0,0,0-.31.07,23.89,23.89,0,0,1-3.94.69c-4.51.55-6.4,2-7.2,3.18a2.91,2.91,0,0,0-.55,2.21c.16.65.49.77.72.77h.09c.86-.1,2-1.83,2-3.38,0-.07,0-.19-.15-.2s-.12,0-.14.11c-.4,1.6-1.54,2.75-2,2.75,0,0-.17,0-.21-.24-.19-1.15,1.41-2.75,2.84-3.25a19.89,19.89,0,0,1,2.87-.54,18.39,18.39,0,0,0-3.07,6.38,8.49,8.49,0,0,0-2.15,2.28c-.17.24-.2.46-.09.54s.18.07.34-.16a8.16,8.16,0,0,1,1.62-1.8c-1.46,4.52-2.9,7.11-4.29,7.72-.59.26-.85.23-1,.15a.44.44,0,0,1-.14-.39.9.9,0,0,1,.08-.23,3.08,3.08,0,0,0,.23-.94.74.74,0,0,0-.3-.66.6.6,0,0,0-.58,0,1.67,1.67,0,0,0-.82,1.62,1.23,1.23,0,0,0,.49,1.08,1.31,1.31,0,0,0,.72.18,3.18,3.18,0,0,0,1.29-.31c2.32-1,4.31-4.1,5.91-9.14a12.77,12.77,0,0,0,2.87-2.19C121.87,79.08,122,78.81,121.86,78.7Z"/><path d="M134.83,81.92a17.42,17.42,0,0,0-1.63,2.18c.15-.3,1.32-2.41,1.53-2.88l.28-.61h-.1a6.38,6.38,0,0,0-1-.45h-.09v.09a14.38,14.38,0,0,1-.86,1.19l-.66.88-.31.44c-.05.07-.1.14-.14.21l-.26.33a9.91,9.91,0,0,1-.82,1c-.63.71-1.51,1.47-2.1,1.43-.14,0-.28-.06-.29-.37a8.61,8.61,0,0,1,.93-2.29c.41-.89,1-2.11,1.77-3.88l.07-.14H131a10.37,10.37,0,0,0-1.25-.11h-.07V79a12.91,12.91,0,0,1-1,1.47c-.26.39-.53.78-.74,1.11l-.34.53-.23.35-.07.11-.15.24c-1.19,1.85-2.28,3-2.84,3.13h-.19s0-.06,0-.13c0-.75,2.33-5.8,2.92-6.82l.11-.18h-.21a3.8,3.8,0,0,0-1,.09c-.41.09-.46.27-.72,1-.07.19-.16.41-.27.69v-.26a1.59,1.59,0,0,0-.4-1.23.72.72,0,0,0-.61-.17c-2.84.37-4.38,4.34-4.38,6.27,0,1,.15,1.55.5,1.82a.8.8,0,0,0,.52.16h.34c.54-.14,1.33-.92,2.35-2.32V85c0,.77.12,1.21.36,1.42a.79.79,0,0,0,.68.14c.58-.08,1.38-.78,2.37-2.09,0,0,.77-1.08,1-1.54a3,3,0,0,0,.2-.29L128.94,81a9.42,9.42,0,0,0-1.41,4,1.17,1.17,0,0,0,1,1.3h.15a3.69,3.69,0,0,0,2.3-1.69,14.16,14.16,0,0,0,1-1.31,1.08,1.08,0,0,0,.18-.24c.4-.53.7-.93.93-1.22-.73,1.48-1.31,2.51-2.31,4.4l-.1.16h.18a11.72,11.72,0,0,1,1.19.15h.07a22.08,22.08,0,0,1,2.87-4.3c.79-.76,1.21-1,.88,1.09,0,.19.86.13.87-.11C137,80.84,135.74,80.92,134.83,81.92Zm-14,4.63h-.19a.64.64,0,0,1-.13-.48c0-1.76,1.86-6.47,3.42-6.67H124a.31.31,0,0,1,.22.09,1,1,0,0,1,.23.76C124.45,82.37,121.88,86.28,120.83,86.55Z"/><path d="M131,78.06h.13a.5.5,0,0,0,.33-.12,1.09,1.09,0,0,0,.34-.85.89.89,0,0,0-.53-.9.53.53,0,0,0-.47.1,1.11,1.11,0,0,0-.34.86A.86.86,0,0,0,131,78.06Z"/><path class="cls-1" d="M114.26,99.51a6,6,0,0,0-2.32-3,28.53,28.53,0,0,1,13.75-5c5.54-.32,9.13,1.53,9.13,4.6v8.32c-1.31-1.28-4.14-2.14-8.6-2s-8.64.86-15.49,4.19A27,27,0,0,1,114.26,99.51Z"/><path d="M125.44,93a1.13,1.13,0,0,0-.91-.19c-2,.26-4.52,4.7-4.52,7.11a2.21,2.21,0,0,0,.54,1.76.84.84,0,0,0,.57.19h.28c1.58-.34,4.38-4.85,4.39-7.69A1.45,1.45,0,0,0,125.44,93Zm-4.06,8.48a.49.49,0,0,1-.41,0,.86.86,0,0,1-.17-.64c0-2.39,2.28-7.42,3.75-7.61h.18a.61.61,0,0,1,.41.13.83.83,0,0,1,.21.64c0,2.47-2.68,7.18-4,7.46Z"/><path d="M117.22,99.55c1.34-1.16,2.73-2.35,2.73-4.24a1.19,1.19,0,0,0-.44-1.06,1.48,1.48,0,0,0-1.36,0A4.84,4.84,0,0,0,115.4,98a.73.73,0,0,0,.27.66.75.75,0,0,0,.74,0,4.36,4.36,0,0,0,2-3.41c0-.09,0-.13-.07-.15a.13.13,0,0,0-.12,0c-.08,0-.12.1-.32.75a4.67,4.67,0,0,1-1.61,2.42.45.45,0,0,1-.42,0,.47.47,0,0,1-.15-.39,4.37,4.37,0,0,1,2.42-3.24c.35-.13.6-.15.74,0s.19.27.19.55a6.33,6.33,0,0,1-1.58,3.35c-.45.52-.85,1-1.21,1.36a22.51,22.51,0,0,0-2.07,2.5,5.61,5.61,0,0,0-.83,1.87.21.21,0,0,0,.08.16h.13c.06,0,.1-.09.22-.33l.31-.55a4.24,4.24,0,0,1,1.29-1.47h.12a2.77,2.77,0,0,1,.1.42.83.83,0,0,0,.31.62.9.9,0,0,0,.72,0,3.69,3.69,0,0,0,1.63-1.5,6.1,6.1,0,0,0,.76-1.34.15.15,0,0,0-.06-.14.13.13,0,0,0-.12,0c-.05,0-.09,0-.4.56a5.11,5.11,0,0,1-1.47,1.79.34.34,0,0,1-.2,0,.52.52,0,0,1-.07-.32.77.77,0,0,0-.28-.69.81.81,0,0,0-.77,0,2.55,2.55,0,0,0-.87.66,13.87,13.87,0,0,1,1.17-1.37A12.38,12.38,0,0,1,117.22,99.55Z"/><path d="M132.72,93.87a1,1,0,0,0-1.15-.16,3,3,0,0,0-1.41,2.64,2.16,2.16,0,0,0,1.15,2.2c.66.22,1.11-.19,1.44-.69-.34,1.43-1.65,3.53-3.24,3.37-.51,0-.8-.24-.8-.53,0-.08,0-.14.13-.24a.79.79,0,0,0,.26-.6c0-.26-.15-.67-.5-.68a.46.46,0,0,0-.4.14.85.85,0,0,0-.22.61,1.53,1.53,0,0,0,1.36,1.68h.46a3.41,3.41,0,0,0,2.25-1,5.54,5.54,0,0,0,1.72-4.29A3.11,3.11,0,0,0,132.72,93.87Zm-.6,4.2a.75.75,0,0,1-.66.14c-.45-.16-.51-.68-.51-1,0-.58.56-2.71,1.28-3h.17a.45.45,0,0,1,.32.14,1.72,1.72,0,0,1,.42,1.32A3.12,3.12,0,0,1,132.12,98.07Z"/><path d="M129.51,92.74c-.13,0-.27.13-.77.68-.36.39-.9,1-1.71,1.79a.21.21,0,0,0,.11.36.16.16,0,0,0,.13-.06c.41-.43.79-.85,1.12-1.21l.42-.47-1,1.87c-1,1.75-2.08,3.73-3.12,5.45l-.1.16h.19a7.38,7.38,0,0,1,1.24-.16h0a56.55,56.55,0,0,0,3.6-8.07C129.66,92.86,129.6,92.75,129.51,92.74Z"/></svg>